    <svg
      class="svg-icon-preload"
      width="42"
      height="42"
      viewBox="0 0 42 42"
      fill="none"
      xmlns="http://www.w3.org/2000/svg"
    >
      <path
        fill-rule="evenodd"
        clip-rule="evenodd"
        d="M20.959 33.14l-10.345 6.615c-.724.463-1.673.229-2.119-.523a1.65 1.65 0 01-.183-1.224l3.005-12.52-8.728-7.106a1.639 1.639 0 01-.26-2.243c.264-.35.656-.57 1.083-.606l11.406-.985 4.744-11.575c.332-.812 1.237-1.19 2.02-.845.367.162.66.467.815.849l4.706 11.57 11.484.986c.847.073 1.478.845 1.408 1.725a1.616 1.616 0 01-.587 1.127l-8.763 7.103 3 12.529c.204.856-.298 1.723-1.123 1.936a1.492 1.492 0 01-1.178-.19L20.959 33.14z"
        fill="currentColor"
      ></path>
    </svg>